<?xml version="1.0" encoding="UTF-8"?>
<svg xmlns="http://www.w3.org/2000/svg" viewBox="46 46 192 192">
  <title>MAS monogram</title>
  <path fill="#FFFFFF" fill-rule="evenodd" d="M 140.199219 46.625 C 128.246094 47.042969 117.519531 53.328125 111.324219 63.648438 C 104.769531 74.574219 104.492188 87.652344 111.0625 100.066406 L 119.1875 114.273438 L 107.808594 132.847656 L 87.074219 98.292969 L 69.738281 98.292969 L 69.738281 178.734375 L 79.292969 162.734375 L 79.292969 105.859375 L 141.453125 206.273438 L 153.191406 186.980469 L 147.835938 178.074219 L 141.484375 188.96875 L 114.078125 143.296875 L 141.464844 95.660156 L 168.851562 143.296875 L 159.023438 159.679688 L 136.226562 121.5625 L 135.53125 122.8125 L 135.511719 122.785156 L 131.789062 129.554688 L 131.21875 130.585938 L 131.222656 130.589844 L 130.582031 131.753906 L 152.066406 167.71875 L 152.625 168.6875 L 164.019531 187.640625 C 169.027344 195.988281 169.027344 206.355469 164.019531 214.707031 C 159.640625 222.003906 152.226562 226.605469 143.875 227.355469 C 142.753906 227.457031 141.628906 227.457031 140.511719 227.355469 C 132.15625 226.605469 124.746094 222.003906 120.367188 214.707031 C 118.285156 211.234375 117.03125 207.3125 116.707031 203.292969 L 106.390625 203.292969 C 106.722656 208.921875 108.417969 214.410156 111.324219 219.253906 C 117.734375 229.941406 129.003906 236.328125 141.46875 236.328125 C 141.757812 236.328125 142.792969 236.332031 142.792969 236.332031 C 155.253906 236.332031 166.523438 229.949219 172.933594 219.265625 C 176.863281 212.71875 178.476562 205.242188 177.789062 197.925781 C 177.332031 193.085938 176.027344 188.132812 173.539062 183.957031 L 164.574219 168.960938 L 203.636719 105.859375 L 203.636719 162.734375 L 204.144531 163.582031 L 204.339844 164.058594 L 212.160156 177.003906 L 213.195312 178.734375 L 213.195312 98.292969 L 195.855469 98.292969 L 175.117188 132.855469 L 164.515625 115.183594 L 163.941406 114.183594 L 155.296875 99.820312 L 141.46875 76.769531 L 125.164062 104.039062 L 122.394531 99.113281 L 122.070312 98.570312 L 122.085938 98.5625 L 120.199219 95.207031 C 115.398438 86.089844 115.417969 76.25 120.238281 68.210938 C 124.496094 61.113281 131.621094 56.566406 139.683594 55.632812 C 140.992188 55.480469 142.308594 55.484375 143.613281 55.652344 C 151.554688 56.667969 158.546875 61.191406 162.75 68.199219 C 164.859375 71.710938 166.117188 75.667969 166.429688 79.71875 L 176.546875 79.71875 C 176.226562 74.050781 174.53125 68.523438 171.605469 63.648438 C 165.421875 53.347656 154.722656 47.0625 142.792969 46.625 C 142.367188 46.609375 141.933594 46.601562 141.496094 46.601562 C 141.070312 46.601562 140.636719 46.609375 140.199219 46.625 M 69.738281 196.242188 L 69.738281 205.550781 L 77.460938 205.550781 L 103.054688 161.226562 L 96.65625 150.894531 Z M 179.890625 161.253906 L 205.464844 205.550781 L 213.195312 205.550781 L 213.195312 196.246094 L 186.15625 151.148438 Z M 179.890625 161.253906"/>
</svg>
